<svg width="330" height="123.8" version="1.1" id="Layer_1" xmlns="http://www.w3.org/2000/svg" x="0" y="0" viewBox="0 0 453.1 123.8" style="enable-background:new 0 0 453.1 123.8" xml:space="preserve"><style>.st0{fill:#fff}</style><switch><g><path class="st0" d="M70.3 18.5c-9-8.8-20.2-13.2-33.7-13.2H18.8V22H35c8.6 0 15.6 2.7 21.1 8.2 5.4 5.5 8.2 12.5 8.2 21.1 0 8.5-2.7 15.5-8.2 21.1-5.4 5.6-12.5 8.4-21.1 8.4H18.8v16.7h17.8c13.5 0 24.8-4.4 33.7-13.2s13.4-19.8 13.4-32.9c.1-13.1-4.4-24.1-13.4-32.9z"/><path d="M18.8 22H0c4 9 6.3 18.9 6.3 29.4C6.3 61.8 4 71.8 0 80.8h18.8c4-9 6.3-18.9 6.3-29.4S22.9 31 18.8 22z" style="fill:#0ab89b"/><path class="st0" d="M143.7 37.5V0h17.8v97.5h-17.8v-8c-5.7 6.2-12.9 9.4-21.6 9.4-9.3 0-17.1-3.4-23.3-10.1-6.2-6.8-9.4-15.1-9.4-25.2 0-10 3.1-18.4 9.4-25.2 6.2-6.8 14-10.1 23.3-10.1 8.7-.1 15.9 3 21.6 9.2zM113 77.1c3.4 3.6 7.7 5.5 12.8 5.5 5.1 0 9.4-1.8 12.8-5.5 3.4-3.6 5.1-8.2 5.1-13.6s-1.7-10-5.1-13.6c-3.4-3.6-7.7-5.4-12.8-5.4-5.1 0-9.4 1.8-12.8 5.5-3.4 3.6-5.1 8.1-5.1 13.5s1.7 10 5.1 13.6zM179.1 88.7c-6.9-6.8-10.4-15.1-10.4-25.2 0-10 3.5-18.4 10.4-25.2 6.9-6.8 15.6-10.1 26-10.1s19 3.4 26 10.1c6.9 6.8 10.4 15.1 10.4 25.2 0 10-3.5 18.4-10.4 25.2-6.9 6.8-15.6 10.1-26 10.1s-19-3.4-26-10.1zm8.1-25.2c0 5.4 1.7 10 5.1 13.6 3.4 3.6 7.7 5.5 12.8 5.5 5.1 0 9.4-1.8 12.8-5.5 3.4-3.6 5.1-8.2 5.1-13.6s-1.7-10-5.1-13.6c-3.4-3.6-7.7-5.4-12.8-5.4-5.1 0-9.4 1.8-12.8 5.5-3.4 3.6-5.1 8.1-5.1 13.5zM244.8 79.2l17.8-3.7c.8 6.1 4.8 9.2 12.1 9.2 3.6 0 6.5-.7 8.7-2 2.2-1.4 3.3-3.1 3.3-5.1 0-1.9-1-3.5-3-4.6-2-1.1-4.4-1.9-7.4-2.2-2.9-.3-6.1-.9-9.6-1.7-3.5-.8-6.7-1.8-9.6-2.9-2.9-1.1-5.4-3.1-7.4-5.9-2-2.8-3-6.3-3-10.5 0-6.1 2.7-11.3 8-15.3 5.3-4.1 12-6.1 20-6.1s14.6 1.8 19.8 5.3c5.2 3.6 8.3 8.3 9.2 14.3L286 51.5c-.9-6.1-4.7-9.2-11.3-9.2-2.9 0-5.3.6-7.2 1.8-1.9 1.2-2.8 2.8-2.8 4.7 0 2 1 3.6 3 4.7s4.4 1.9 7.4 2.2c2.9.4 6.1.9 9.6 1.8 3.5.8 6.7 1.8 9.6 3 2.9 1.1 5.4 3.1 7.4 6s3 6.4 3 10.7c0 6.1-2.9 11.2-8.7 15.3-5.8 4.1-12.9 6.2-21.2 6.2-8.3 0-15.2-1.8-20.5-5.3-5.4-3.5-8.5-8.3-9.5-14.2zM311.6 29.5h17.8v68h-17.8zM435.1 29.5 416 92.7l-17.4-63.2h-32v-4.2c0-6.4 3.2-9.6 9.6-9.6h8V0h-8c-9.3 0-16.2 2.2-20.7 6.5s-6.7 11-6.7 19.8v3.2H335v15.7h13.7v52.3h17.8V45.2h17.6l16 52.3h14.4l-8 26.3h18l28.6-94.3h-18zM311.6 0h17.8v17.8h-17.8z"/></g></switch></svg>