<svg width="150" height="32" viewBox="0 0 150 32" fill="none" xmlns="http://www.w3.org/2000/svg">
<g clip-path="url(#clip0_263_1974)">
<path d="M48.5149 24.4561C48.5149 29.541 52.0178 32 56.3861 32C57.856 32 58.9262 31.8532 59.8019 31.5939C59.9034 31.5639 59.9715 31.4684 59.9715 31.3613V26.8352C59.9715 26.6729 59.8177 26.5566 59.6643 26.6038C59.0824 26.7836 58.4322 26.8735 57.6636 26.8735C55.2323 26.8735 54.1607 25.631 54.1607 23.0885V15.4538C54.1607 15.3199 54.268 15.2115 54.4002 15.2115H58.6452C58.7254 15.2115 58.8004 15.1708 58.8447 15.1032L62.0463 10.5863C62.1519 10.4252 62.0379 10.2101 61.8467 10.2101H54.4002C54.268 10.2101 54.1607 10.1016 54.1607 9.96781V3.90628C54.1607 3.77229 54.0536 3.66398 53.9211 3.66398H48.7545C48.6222 3.66398 48.5149 3.77229 48.5149 3.90628V24.4561Z" fill="white"/>
<path d="M23.4246 10.4699V31.2653C23.4246 31.3989 23.3173 31.5076 23.185 31.5076H18.0183C17.886 31.5076 17.7788 31.3989 17.7788 31.2653V15.3736C17.7788 15.2399 17.6715 15.1313 17.5392 15.1313H12.2728C12.1405 15.1313 12.0332 15.0229 12.0332 14.889L12.0335 10.4699C12.0335 10.336 12.1407 10.2276 12.2731 10.2276H23.185C23.3173 10.2276 23.4246 10.336 23.4246 10.4699Z" fill="white"/>
<path d="M38.0365 10.2101C35.3578 10.2101 33.215 11.3771 32.1433 13.0441V10.4699C32.1433 10.336 32.0362 10.2276 31.9037 10.2276H26.7371C26.6049 10.2276 26.4975 10.336 26.4975 10.4699V31.2653C26.4975 31.3989 26.6049 31.5076 26.7371 31.5076H31.9037C32.0362 31.5076 32.1433 31.3989 32.1433 31.2653V21.338C32.1433 17.3371 34.1215 15.4198 36.7179 15.4198C39.0667 15.4198 40.3444 17.2537 40.3444 20.2545V31.2653C40.3444 31.3989 40.4518 31.5076 40.584 31.5076H45.7508C45.8831 31.5076 45.9904 31.3989 45.9904 31.2653V19.296C45.9904 13.8777 43.0232 10.2101 38.0365 10.2101Z" fill="white"/>
<path d="M67.2749 18.6706C67.1127 18.6706 66.9999 18.5114 67.0461 18.3543C67.6695 16.2377 69.4331 14.8365 71.9079 14.8365C73.7695 14.8365 75.7832 15.7988 76.559 18.3524C76.6069 18.51 76.4943 18.6706 76.3311 18.6706H67.2749ZM72.0728 10.2101C65.8087 10.2101 61.2343 14.8365 61.2343 21.0462C61.2343 27.3813 65.7262 31.9658 72.0316 31.9658C77.1335 31.9658 81.1388 29.075 82.4829 25.0298C82.5344 24.8746 82.416 24.7142 82.2538 24.7142H76.8342C76.7446 24.7142 76.6651 24.766 76.6232 24.8459C75.9202 26.1852 74.2362 27.0065 72.32 27.0065C68.9477 27.0065 67.1415 25.0365 66.7907 22.6953C66.7691 22.5509 66.8846 22.4217 67.0291 22.4217H82.5947C82.7248 22.4217 82.8331 22.3154 82.836 22.1839C83.0159 14.4979 78.0693 10.2101 72.0728 10.2101Z" fill="white"/>
<path d="M90.9483 13.3098V10.4699C90.9483 10.336 90.8407 10.2276 90.7087 10.2276H85.5418C85.4096 10.2276 85.3023 10.336 85.3023 10.4699V31.2653C85.3023 31.3989 85.4096 31.5076 85.5418 31.5076H90.7087C90.8407 31.5076 90.9483 31.3989 90.9483 31.2653V21.5464C90.9483 18.129 92.7202 16.0033 95.399 16.0033C96.1973 16.0033 96.8997 16.1326 97.6472 16.3626C97.7998 16.4098 97.9541 16.2919 97.9541 16.1303V10.6458C97.9541 10.5362 97.8808 10.4378 97.7761 10.4101C97.1479 10.245 96.5859 10.2101 96.0583 10.2101C93.7504 10.2101 91.6488 11.2676 90.9483 13.3098Z" fill="white"/>
<path d="M111.951 10.2101C109.272 10.2101 107.129 11.3771 106.057 13.0441V10.4699C106.057 10.336 105.95 10.2276 105.818 10.2276H100.651C100.519 10.2276 100.412 10.336 100.412 10.4699V31.2653C100.412 31.3989 100.519 31.5076 100.651 31.5076H105.818C105.95 31.5076 106.057 31.3989 106.057 31.2653V21.338C106.057 17.3371 108.035 15.4198 110.632 15.4198C112.981 15.4198 114.258 17.2537 114.258 20.2545V31.2653C114.258 31.3989 114.365 31.5076 114.498 31.5076H119.665C119.797 31.5076 119.904 31.3989 119.904 31.2653V19.296C119.904 13.8777 116.937 10.2101 111.951 10.2101Z" fill="white"/>
<path d="M144.353 0.249066V31.2653C144.353 31.3989 144.461 31.5076 144.593 31.5076H149.759C149.892 31.5076 149.999 31.3989 149.999 31.2653V0.249066C149.999 0.115319 149.892 0.00677062 149.759 0.00677062H144.593C144.461 0.00677062 144.353 0.115319 144.353 0.249066Z" fill="white"/>
<path d="M20.5811 7.25094C18.6441 7.25094 16.9956 5.62537 16.9956 3.62498C16.9956 1.62459 18.6441 -0.000976562 20.5811 -0.000976562C22.6004 -0.000976562 24.2076 1.62459 24.2076 3.62498C24.2076 5.62537 22.6004 7.25094 20.5811 7.25094Z" fill="white"/>
<path d="M136.353 23.3367L136.357 21.474C135.085 22.3157 133.445 22.6429 131.448 23.0059C129.452 23.3688 128.18 23.8438 128.177 25.3487C128.175 26.6336 129.116 27.3699 131.33 27.3743C134.306 27.3804 136.348 25.686 136.353 23.3367ZM122.37 25.75C122.37 21.108 126.52 20.286 130.352 19.4935C134.341 18.6685 136.118 18.323 136.118 16.5874C136.118 15.0939 134.472 14.408 132.536 14.408C130.498 14.408 129.13 15.1618 128.607 16.7791C128.575 16.8802 128.484 16.9509 128.379 16.9509H123.615C123.465 16.9509 123.349 16.8131 123.378 16.6648C124.092 12.9727 127.34 10.2101 132.827 10.2101C139.492 10.2101 141.807 13.3988 141.807 17.4755V27.1223C141.807 28.7557 141.807 30.6268 141.807 31.281C141.807 31.4151 141.7 31.5219 141.567 31.5219H136.757C136.625 31.5219 136.518 31.4134 136.518 31.2796V28.7697C135.32 30.8685 133.266 31.9658 129.793 31.9658C126.042 31.9658 122.37 30.19 122.37 25.75Z" fill="white"/>
<path d="M8.67343 31.5079H0.239676C0.107344 31.5079 9.35868e-05 31.3994 9.35868e-05 31.2656L0 22.7362C0 22.6022 0.10725 22.4939 0.239582 22.4939L8.67335 22.4937C8.80567 22.4937 8.91294 22.6022 8.91294 22.736L8.91301 31.2656C8.91301 31.3991 8.80577 31.5079 8.67343 31.5079Z" fill="#A560EB"/>
</g>
<defs>
<clipPath id="clip0_263_1974">
<rect width="150" height="32" fill="white"/>
</clipPath>
</defs>
</svg>
